<svg id="Layer_1" data-name="Layer 1" xmlns="http://www.w3.org/2000/svg" viewBox="0 0 1200 222"><defs><style>.cls-1{fill:#002c4f;}</style></defs><title>engaged-svg-text</title><path class="cls-1" d="M356.76,47.58a7.71,7.71,0,0,0-1.8.75,15.12,15.12,0,0,0-3.7,2.6,12,12,0,0,0-3,4.65l-20.9,59.3h-1l-18.1-50.2-11.8,33.6-5.8,16.6h-1L268,54.68a13,13,0,0,0-3-4.45,11.6,11.6,0,0,0-3.25-2.15,4.88,4.88,0,0,0-1.5-.5v-.7h26.5v.7a5.77,5.77,0,0,0-1.7.35,7.11,7.11,0,0,0-3,1.7,4.47,4.47,0,0,0-1.35,3.45,8.25,8.25,0,0,0,.5,2.8l-.1-.3,14.5,39.8,17.3-48.5h1.7l17.7,48.7,14-39.7a10.08,10.08,0,0,0,.5-2.6,4.25,4.25,0,0,0-1.6-3.55A9.61,9.61,0,0,0,341.51,48a7.64,7.64,0,0,0-2-.4v-.7h17.2Z"/><path class="cls-1" d="M361.06,92.68a19.84,19.84,0,0,0,4,12.45q3.95,5.15,12.55,5.15a14.94,14.94,0,0,0,9.1-3q4-2.95,6-10h.5q-1.4,9-6.2,13.7a16.84,16.84,0,0,1-12.3,4.7q-12.3,0-18.5-6.5T350,91.88a24.81,24.81,0,0,1,2.6-11.35,19.33,19.33,0,0,1,7.8-8.15,24.61,24.61,0,0,1,12.5-3,18.44,18.44,0,0,1,10.25,3,20.16,20.16,0,0,1,7.15,8.25,29.14,29.14,0,0,1,2.8,12.1Zm22-1.4q-.2-9.2-2.45-14.85t-7.85-5.65q-5.7,0-8.6,6a35.11,35.11,0,0,0-3.1,14.45Z"/><path class="cls-1" d="M460.15,109.48q12,0,12,11.6,0,7.9-6.3,11.45t-17.1,3.55q-11.5,0-17.35-2.65t-5.85-7a7,7,0,0,1,2.5-5.3q2.5-2.3,8.1-3.1a10.47,10.47,0,0,1-5.85-2.6,6.25,6.25,0,0,1-2-4.6,8.51,8.51,0,0,1,2-5.2A13.34,13.34,0,0,1,435,102a23.15,23.15,0,0,1,7.15-2q-6.5-.9-10-4.65a13.56,13.56,0,0,1-3.45-9.55,15.51,15.51,0,0,1,5-11.9q4.95-4.6,15-4.6a31,31,0,0,1,7.9.9q.6-2.6,1.4-5a13,13,0,0,1,3.25-5.55,7.28,7.28,0,0,1,5-1.75,5.8,5.8,0,0,1,4.5,1.75,6.21,6.21,0,0,1,1.6,4.35,9.83,9.83,0,0,1-2.5,6.6l-5-1.5a9.68,9.68,0,0,0,2-5.4,3.24,3.24,0,0,0-.75-2.3,2.55,2.55,0,0,0-1.95-.8,4,4,0,0,0-2.6,1.15,8,8,0,0,0-2.1,3.45q-1,3-1.6,5.4a14.68,14.68,0,0,1,7.9,5.45,15.85,15.85,0,0,1,2.6,9.25q0,7.6-5.15,11.2t-15.85,4.2q-12.6.7-12.6,5.9,0,1.7,2.25,3t7.45,1.35a61,61,0,0,0,9.9-1A31.7,31.7,0,0,1,460.15,109.48Zm3.15,22a6.5,6.5,0,0,0,2.75-5.65,8.39,8.39,0,0,0-1.8-5.8q-1.8-2-6.4-2a32.1,32.1,0,0,0-5.6.6,44.49,44.49,0,0,1-8.1.8,25.54,25.54,0,0,1-4.9-.4,8.38,8.38,0,0,1-2-.5,7.67,7.67,0,0,0-3.9,3,7.87,7.87,0,0,0-1.8,4.7,2.57,2.57,0,0,0,.1.8q.7,3.8,5.55,5.7a31,31,0,0,0,11.35,1.9,39.56,39.56,0,0,0,6.1-.4Q460.55,133.38,463.3,131.43Zm-20-35a8.13,8.13,0,0,0,6,2.85,12,12,0,0,0,1.8-.2,8.53,8.53,0,0,0,4.95-2.7q1.85-2.1,1.85-6.9a28.58,28.58,0,0,0-.5-5.4q-2.3-13.3-9.9-13.3a8.3,8.3,0,0,0-6.1,2.5q-2.5,2.5-2.5,8.2a36.6,36.6,0,0,0,.5,5.2Q440.65,93.58,443.35,96.43Z"/><path class="cls-1" d="M480.8,76.13q5.75-6.75,17.25-6.75,7.8,0,13,3.2a19.69,19.69,0,0,1,7.65,8.6,28.25,28.25,0,0,1,2.5,12q0,10.1-5.75,16.3t-17.35,6.2q-11.6,0-17.3-6.2t-5.7-16.3Q475.05,82.88,480.8,76.13Zm19.35,38a16.09,16.09,0,0,0,2.1-.2,9.79,9.79,0,0,0,6.5-3.75q2.3-3,2.3-9.35a51.46,51.46,0,0,0-1-9.4q-2-10.5-5.65-15.6t-8.35-5.1a12.05,12.05,0,0,0-1.7.2,9.65,9.65,0,0,0-6.65,4.35q-2.45,3.65-2.45,10.45a52.92,52.92,0,0,0,.9,9.1Q489.65,114.18,500.15,114.18Z"/><path class="cls-1" d="M558.05,104.18q-1.3,6.3-4.2,9t-8.2,2.7q-5.7,0-8.95-3.55t-3.25-9.45l.1-31.1h-8.2v-1.4h8.2V59.48l8.5-7.7h.9v18.6h13v1.4H543v30.5q0,4.5,1.75,6.8a5.55,5.55,0,0,0,4.65,2.3,7.49,7.49,0,0,0,4.65-1.75,11.52,11.52,0,0,0,3.55-5.45Z"/><path class="cls-1" d="M601.55,92.68a19.84,19.84,0,0,0,4,12.45q3.95,5.15,12.55,5.15a14.94,14.94,0,0,0,9.1-3q4-2.95,6-10h.5q-1.4,9-6.2,13.7a16.84,16.84,0,0,1-12.3,4.7q-12.3,0-18.5-6.5t-6.2-17.3A24.81,24.81,0,0,1,593,80.53a19.33,19.33,0,0,1,7.8-8.15,24.61,24.61,0,0,1,12.5-3,18.44,18.44,0,0,1,10.25,3,20.15,20.15,0,0,1,7.15,8.25,29.12,29.12,0,0,1,2.8,12.1Zm22-1.4q-.2-9.2-2.45-14.85t-7.85-5.65q-5.7,0-8.6,6a35.11,35.11,0,0,0-3.1,14.45Z"/><path class="cls-1" d="M685.5,111.13a7.63,7.63,0,0,0,3.3,2.55q1.85.7,1.85.5v.7h-22.7v-.7q0,.2,1.85-.5a7.65,7.65,0,0,0,3.3-2.55,8.34,8.34,0,0,0,1.45-5.25V82.58q0-9.1-7.7-9.1-6.5,0-12.9,8.1v24.3a8.34,8.34,0,0,0,1.45,5.25,7.63,7.63,0,0,0,3.3,2.55q1.85.7,1.85.5v.7h-22.7v-.7q0,.2,1.85-.5a7.65,7.65,0,0,0,3.3-2.55,8.35,8.35,0,0,0,1.45-5.25V84.28A8.35,8.35,0,0,0,643,79a7.68,7.68,0,0,0-3.3-2.55q-1.85-.7-1.85-.5v-.7q.5-.1,2.4-.55a29,29,0,0,0,4.5-1.55,21.49,21.49,0,0,0,4.8-2.8h.7l3.7,9.1a31.33,31.33,0,0,1,8.2-7.65,18,18,0,0,1,9.4-2.45,12.63,12.63,0,0,1,9,3.3,11.69,11.69,0,0,1,3.55,9v24.2A8.33,8.33,0,0,0,685.5,111.13Z"/><path class="cls-1" d="M728.45,109.48q12,0,12,11.6,0,7.9-6.3,11.45T717,136.08q-11.5,0-17.35-2.65t-5.85-7a7,7,0,0,1,2.5-5.3q2.5-2.3,8.1-3.1a10.47,10.47,0,0,1-5.85-2.6,6.25,6.25,0,0,1-2-4.6,8.51,8.51,0,0,1,2-5.2A13.34,13.34,0,0,1,703.3,102a23.13,23.13,0,0,1,7.15-2q-6.5-.9-9.95-4.65A13.55,13.55,0,0,1,697,85.88,15.51,15.51,0,0,1,702,74q4.95-4.6,14.95-4.6a31,31,0,0,1,7.9.9q.6-2.6,1.4-5a13,13,0,0,1,3.25-5.55,7.28,7.28,0,0,1,5-1.75,5.8,5.8,0,0,1,4.5,1.75,6.21,6.21,0,0,1,1.6,4.35,9.83,9.83,0,0,1-2.5,6.6l-5-1.5a9.68,9.68,0,0,0,2-5.4,3.24,3.24,0,0,0-.75-2.3,2.55,2.55,0,0,0-2-.8,4,4,0,0,0-2.6,1.15,8,8,0,0,0-2.1,3.45q-1,3-1.6,5.4a14.68,14.68,0,0,1,7.9,5.45,15.85,15.85,0,0,1,2.6,9.25q0,7.6-5.15,11.2t-15.85,4.2q-12.6.7-12.6,5.9,0,1.7,2.25,3t7.45,1.35a61,61,0,0,0,9.9-1A31.69,31.69,0,0,1,728.45,109.48Zm3.15,22a6.5,6.5,0,0,0,2.75-5.65,8.39,8.39,0,0,0-1.8-5.8q-1.8-2-6.4-2a32.1,32.1,0,0,0-5.6.6,44.49,44.49,0,0,1-8.1.8,25.54,25.54,0,0,1-4.9-.4,8.36,8.36,0,0,1-2-.5,7.67,7.67,0,0,0-3.9,3,7.86,7.86,0,0,0-1.8,4.7,2.61,2.61,0,0,0,.1.8q.7,3.8,5.55,5.7a31,31,0,0,0,11.35,1.9,39.54,39.54,0,0,0,6.1-.4Q728.85,133.38,731.6,131.43Zm-20-35a8.12,8.12,0,0,0,6,2.85,12,12,0,0,0,1.8-.2,8.53,8.53,0,0,0,5-2.7q1.85-2.1,1.85-6.9a28.66,28.66,0,0,0-.5-5.4q-2.3-13.3-9.9-13.3a8.3,8.3,0,0,0-6.1,2.5q-2.5,2.5-2.5,8.2a36.6,36.6,0,0,0,.5,5.2Q708.95,93.58,711.65,96.43Z"/><path class="cls-1" d="M781.6,108.83a6.29,6.29,0,0,0,3.3,2.35q1.85.5,1.85.3v.7l-13.4,3.7-2.7-8.4a15.31,15.31,0,0,1-6.9,6.35,22.71,22.71,0,0,1-9.7,2,12,12,0,0,1-7.75-2.8,9.38,9.38,0,0,1-3.45-7.7,11.69,11.69,0,0,1,1.15-5.3,12.64,12.64,0,0,1,4.4-4.5,43.12,43.12,0,0,1,9.45-4.4l12.8-4.5v-10a6.11,6.11,0,0,0-1.25-4.25q-1.25-1.35-4.15-1.35a15.88,15.88,0,0,0-5.25,1,14.43,14.43,0,0,0-5.05,3,5.93,5.93,0,0,0-2.1,4.45,13.88,13.88,0,0,0,.55,4.15,12.57,12.57,0,0,0,2,3.65l-9.3,3.8a19.25,19.25,0,0,1-.9-5.5,12.49,12.49,0,0,1,3.5-8.9,21.55,21.55,0,0,1,9.15-5.55,37.85,37.85,0,0,1,11.85-1.85q10.5,0,10.5,12.8v21Q780.15,107,781.6,108.83Zm-11-9.15V88A53.23,53.23,0,0,0,758,94.83q-4.35,3.45-4.35,7.75,0,9.2,7.1,9.2Q770.65,111.78,770.65,99.68Z"/><path class="cls-1" d="M824.54,109.48q12,0,12,11.6,0,7.9-6.3,11.45t-17.1,3.55q-11.5,0-17.35-2.65t-5.85-7a7,7,0,0,1,2.5-5.3q2.5-2.3,8.1-3.1a10.47,10.47,0,0,1-5.85-2.6,6.25,6.25,0,0,1-2-4.6,8.51,8.51,0,0,1,2-5.2A13.34,13.34,0,0,1,799.4,102a23.13,23.13,0,0,1,7.15-2q-6.5-.9-9.95-4.65a13.55,13.55,0,0,1-3.45-9.55,15.51,15.51,0,0,1,5-11.9q4.95-4.6,14.95-4.6a31,31,0,0,1,7.9.9q.6-2.6,1.4-5a13,13,0,0,1,3.25-5.55,7.28,7.28,0,0,1,5-1.75,5.8,5.8,0,0,1,4.5,1.75,6.21,6.21,0,0,1,1.6,4.35,9.83,9.83,0,0,1-2.5,6.6l-5-1.5a9.68,9.68,0,0,0,2-5.4,3.24,3.24,0,0,0-.75-2.3,2.55,2.55,0,0,0-2-.8,4,4,0,0,0-2.6,1.15,8,8,0,0,0-2.1,3.45q-1,3-1.6,5.4a14.68,14.68,0,0,1,7.9,5.45,15.85,15.85,0,0,1,2.6,9.25q0,7.6-5.15,11.2t-15.85,4.2q-12.6.7-12.6,5.9,0,1.7,2.25,3t7.45,1.35a61,61,0,0,0,9.9-1A31.69,31.69,0,0,1,824.54,109.48Zm3.15,22a6.5,6.5,0,0,0,2.75-5.65,8.39,8.39,0,0,0-1.8-5.8q-1.8-2-6.4-2a32.1,32.1,0,0,0-5.6.6,44.49,44.49,0,0,1-8.1.8,25.54,25.54,0,0,1-4.9-.4,8.36,8.36,0,0,1-2-.5,7.67,7.67,0,0,0-3.9,3,7.86,7.86,0,0,0-1.8,4.7,2.61,2.61,0,0,0,.1.8q.7,3.8,5.55,5.7a31,31,0,0,0,11.35,1.9,39.54,39.54,0,0,0,6.1-.4Q824.94,133.38,827.69,131.43Zm-20-35a8.12,8.12,0,0,0,6,2.85,12,12,0,0,0,1.8-.2,8.53,8.53,0,0,0,5-2.7q1.85-2.1,1.85-6.9a28.66,28.66,0,0,0-.5-5.4q-2.3-13.3-9.9-13.3a8.3,8.3,0,0,0-6.1,2.5q-2.5,2.5-2.5,8.2a36.6,36.6,0,0,0,.5,5.2Q805,93.58,807.74,96.43Z"/><path class="cls-1" d="M850.54,92.68a19.85,19.85,0,0,0,4,12.45q3.95,5.15,12.55,5.15a14.94,14.94,0,0,0,9.1-3q4-2.95,6-10h.5q-1.4,9-6.2,13.7a16.84,16.84,0,0,1-12.3,4.7q-12.3,0-18.5-6.5t-6.2-17.3A24.81,24.81,0,0,1,842,80.53a19.32,19.32,0,0,1,7.8-8.15,24.61,24.61,0,0,1,12.5-3,18.44,18.44,0,0,1,10.25,3,20.16,20.16,0,0,1,7.15,8.25,29.12,29.12,0,0,1,2.8,12.1Zm22-1.4q-.2-9.2-2.45-14.85t-7.85-5.65q-5.7,0-8.6,6a35.11,35.11,0,0,0-3.1,14.45Z"/><path class="cls-1" d="M934.69,108.13a6.29,6.29,0,0,0,3.3,2.35q1.85.5,1.85.3v.7l-13,4.4-2.8-8.2a21.33,21.33,0,0,1-8,6.15,26.08,26.08,0,0,1-10.25,1.85,15.77,15.77,0,0,1-9.1-2.8,19.29,19.29,0,0,1-6.5-7.8,25.78,25.78,0,0,1-2.4-11.3,25,25,0,0,1,3-12.25,22.77,22.77,0,0,1,8.75-8.85,25.87,25.87,0,0,1,13.2-3.3,16.56,16.56,0,0,1,6.2,1.2,12.33,12.33,0,0,1,4.7,3.1V57.58a8.35,8.35,0,0,0-1.45-5.25,7.67,7.67,0,0,0-3.3-2.55q-1.85-.7-1.85-.5v-.7q.6-.1,2.9-.8a52.71,52.71,0,0,0,5.7-2.2,40.58,40.58,0,0,0,6.6-3.7h.9v60.6Q933.24,106.28,934.69,108.13Zm-15.75,1.4A11.41,11.41,0,0,0,924,106l-.3-26.3a8.11,8.11,0,0,0-3.15-6.5,12,12,0,0,0-7.65-2.4,12.26,12.26,0,0,0-7.25,2.3,15.69,15.69,0,0,0-5.2,6.85,28,28,0,0,0-2,11,27.65,27.65,0,0,0,1.85,10.65,15.78,15.78,0,0,0,5,6.8,11.5,11.5,0,0,0,7,2.35A18.25,18.25,0,0,0,918.94,109.53Z"/><path class="cls-1" d="M554.21,179.88h-2.6l-2.58-9.3h-.08v9.3h-2.8v-12.6h4.72l2.22,8.42h.06l2.12-8.42h4.62v12.6h-3v-9.3h-.08Z"/><path class="cls-1" d="M568.89,167.28h3.38l5.08,12.6H574.1L573,177.16h-5.08l-1.06,2.72h-3Zm1.56,3.46-1.62,4.14h3.32l-1.62-4.14Z"/><path class="cls-1" d="M585.06,172.14l2.94-4.86h3.26l-4.86,7.78v4.82h-2.94v-4.82l-4.84-7.78H582Z"/><path class="cls-1" d="M605.58,177.36h5.24v2.52h-9.64v-2.12l3.48-2.82a16.4,16.4,0,0,0,2.17-2,2.58,2.58,0,0,0,.59-1.67,1.43,1.43,0,0,0-1.6-1.64,1.53,1.53,0,0,0-1.29.56,2.4,2.4,0,0,0-.43,1.5,3.8,3.8,0,0,0,.14,1.06l-3-.08a6.75,6.75,0,0,1-.16-1.18,4.15,4.15,0,0,1,1.32-3.21,5.72,5.72,0,0,1,6.92-.09,3.73,3.73,0,0,1,1.24,2.9,4.14,4.14,0,0,1-.77,2.55,13.3,13.3,0,0,1-2.51,2.37Z"/><path class="cls-1" d="M624.13,168.76a8.49,8.49,0,0,1,0,9.64,5.75,5.75,0,0,1-8.2,0,8.49,8.49,0,0,1,0-9.64,5.75,5.75,0,0,1,8.2,0Zm-2.27,7.92a8.71,8.71,0,0,0,0-6.2,2.17,2.17,0,0,0-3.66,0,8.72,8.72,0,0,0,0,6.2,2.17,2.17,0,0,0,3.66,0Z"/><path class="cls-1" d="M629.24,171.18v-2a3.64,3.64,0,0,0,2-.46,2.8,2.8,0,0,0,1.06-1.46h2.34v12.62h-3v-8.7Z"/><path class="cls-1" d="M645.16,170H639v-2.72h9.46v2.32a13.61,13.61,0,0,0-1.93,2.38,9.11,9.11,0,0,0-1.1,2.54A15.89,15.89,0,0,0,645,177q-.11,1.15-.11,2.87h-3.32a16.64,16.64,0,0,1,.89-5.49A13.25,13.25,0,0,1,645.16,170Z"/></svg>