<?xml version="1.0" encoding="UTF-8"?>
<svg width="146px" height="81px" viewBox="0 0 146 81" version="1.1" xmlns="http://www.w3.org/2000/svg" xmlns:xlink="http://www.w3.org/1999/xlink">
    <!-- Generator: Sketch 45.2 (43514) - http://www.bohemiancoding.com/sketch -->
    <title>Page 1</title>
    <desc>Created with Sketch.</desc>
    <defs></defs>
    <g id="final" stroke="none" stroke-width="1" fill="none" fill-rule="evenodd">
        <g id="montauk" transform="translate(-665.000000, -2346.000000)" stroke="#04203E" stroke-width="2">
            <g id="Page-1" transform="translate(666.000000, 2347.000000)">
                <path d="M0.000262057292,-0.000131028646 L0.000262057292,63.8684721 L9.29019305,63.8684721 C9.29019305,53.8867099 17.3825222,45.7943807 27.3655947,45.7943807 C37.347357,45.7943807 45.4409964,53.8867099 45.4409964,63.8684721 L89.4810346,63.8684721 C89.4810346,53.8867099 97.5733637,45.7943807 107.555126,45.7943807 C117.538199,45.7943807 125.630528,53.8867099 125.630528,63.8684721 L143.705929,63.8684721 L143.705929,-0.000131028646 L0.000262057292,-0.000131028646 Z" id="Stroke-1"></path>
                <path d="M13.077445,64.3292998 C13.077445,56.4387548 19.4742635,50.0419363 27.3648086,50.0419363 C35.2566639,50.0419363 41.6534824,56.4387548 41.6534824,64.3292998 C41.6534824,72.2198449 35.2566639,78.6166634 27.3648086,78.6166634 C19.4742635,78.6166634 13.077445,72.2198449 13.077445,64.3292998 Z" id="Stroke-3"></path>
                <path d="M93.791877,64.3292998 C93.791877,56.4387548 100.188696,50.0419363 108.080551,50.0419363 C115.971096,50.0419363 122.367914,56.4387548 122.367914,64.3292998 C122.367914,72.2198449 115.971096,78.6166634 108.080551,78.6166634 C100.188696,78.6166634 93.791877,72.2198449 93.791877,64.3292998 Z" id="Stroke-5"></path>
                <polyline id="Stroke-7" points="0.000262057292 33.6911336 108.080551 33.6911336 108.080551 -0.000262057292"></polyline>
                <polyline id="Stroke-9" points="108.080289 33.6911336 124.943676 43.2719482 143.705667 43.2719482"></polyline>
                <path d="M36.0267193,33.6911336 L36.0267193,-0.000262057292" id="Stroke-11"></path>
                <path d="M72.0531765,33.6911336 L72.0531765,-0.000262057292" id="Stroke-13"></path>
            </g>
        </g>
    </g>
</svg>