<svg width="123px" height="67px" viewBox="0 0 123 67" version="1.1" xmlns="http://www.w3.org/2000/svg" xmlns:xlink="http://www.w3.org/1999/xlink">
    <g id="bus_final" stroke="none" stroke-width="0.3" fill="none" fill-rule="evenodd">
        <g id="bus_montauk" transform="translate(-675.000000, -2665.000000)">
            <g id="bus_Page-1" transform="translate(676.000000, 2666.000000)">
                <path d="M2.68977865,30.9324544 L24.2080078,30.9324544 L24.2080078,2.68977865 L2.68977865,2.68977865 L2.68977865,30.9324544 Z M26.8977865,30.9324544 L48.4160156,30.9324544 L48.4160156,2.68977865 L26.8977865,2.68977865 L26.8977865,30.9324544 Z M51.1057943,30.9324544 L72.6240234,30.9324544 L72.6240234,2.68977865 L51.1057943,2.68977865 L51.1057943,30.9324544 Z M75.3138021,30.9324544 L96.8320313,30.9324544 L96.8320313,2.68977865 L75.3138021,2.68977865 L75.3138021,30.9324544 Z M107.591146,40.3466797 L99.5218099,30.9324544 L99.5218099,2.68977865 L118.35026,2.68977865 L118.35026,40.3466797 L107.591146,40.3466797 Z M121.040039,0 L0,0 L0,53.7955729 L4.03466797,53.7955729 C4.03466797,46.3986816 10.0866699,40.3466797 17.4835612,40.3466797 C24.8804525,40.3466797 30.9324544,46.3986816 30.9324544,53.7955729 L75.3138021,53.7955729 C75.3138021,46.3986816 81.365804,40.3466797 88.7626953,40.3466797 C96.1595866,40.3466797 102.211589,46.3986816 102.211589,53.7955729 L121.040039,53.7955729 L121.040039,0 Z M98.3114095,33.6222331 L105.573812,42.0950358 L106.380745,43.0364583 L107.591146,43.0364583 L118.35026,43.0364583 L118.35026,51.1057943 L104.632389,51.1057943 C103.2875,43.4399251 96.6975423,37.656901 88.7626953,37.656901 C80.8278483,37.656901 74.1034017,43.4399251 72.8930013,51.1057943 L33.3532552,51.1057943 C32.0083659,43.4399251 25.4184082,37.656901 17.4835612,37.656901 C10.8936035,37.656901 5.24506836,41.691569 2.68977865,47.3401042 L2.68977865,33.6222331 L24.2080078,33.6222331 L26.8977865,33.6222331 L48.4160156,33.6222331 L51.1057943,33.6222331 L72.6240234,33.6222331 L75.3138021,33.6222331 L96.8320313,33.6222331 L98.3114095,33.6222331 L98.3114095,33.6222331 Z" id="bus_Fill-1" fill="#04203E"></path>
                <path d="M2.68977865,30.9324544 L24.2080078,30.9324544 L24.2080078,2.68977865 L2.68977865,2.68977865 L2.68977865,30.9324544 Z M26.8977865,30.9324544 L48.4160156,30.9324544 L48.4160156,2.68977865 L26.8977865,2.68977865 L26.8977865,30.9324544 Z M51.1057943,30.9324544 L72.6240234,30.9324544 L72.6240234,2.68977865 L51.1057943,2.68977865 L51.1057943,30.9324544 Z M75.3138021,30.9324544 L96.8320313,30.9324544 L96.8320313,2.68977865 L75.3138021,2.68977865 L75.3138021,30.9324544 Z M107.591146,40.3466797 L99.5218099,30.9324544 L99.5218099,2.68977865 L118.35026,2.68977865 L118.35026,40.3466797 L107.591146,40.3466797 Z M121.040039,0 L0,0 L0,53.7955729 L4.03466797,53.7955729 C4.03466797,46.3986816 10.0866699,40.3466797 17.4835612,40.3466797 C24.8804525,40.3466797 30.9324544,46.3986816 30.9324544,53.7955729 L75.3138021,53.7955729 C75.3138021,46.3986816 81.365804,40.3466797 88.7626953,40.3466797 C96.1595866,40.3466797 102.211589,46.3986816 102.211589,53.7955729 L121.040039,53.7955729 L121.040039,0 Z M98.3114095,33.6222331 L105.573812,42.0950358 L106.380745,43.0364583 L107.591146,43.0364583 L118.35026,43.0364583 L118.35026,51.1057943 L104.632389,51.1057943 C103.2875,43.4399251 96.6975423,37.656901 88.7626953,37.656901 C80.8278483,37.656901 74.1034017,43.4399251 72.8930013,51.1057943 L33.3532552,51.1057943 C32.0083659,43.4399251 25.4184082,37.656901 17.4835612,37.656901 C10.8936035,37.656901 5.24506836,41.691569 2.68977865,47.3401042 L2.68977865,33.6222331 L24.2080078,33.6222331 L26.8977865,33.6222331 L48.4160156,33.6222331 L51.1057943,33.6222331 L72.6240234,33.6222331 L75.3138021,33.6222331 L96.8320313,33.6222331 L98.3114095,33.6222331 L98.3114095,33.6222331 Z" id="bus_Stroke-3" stroke="#04203E"></path>
                <path d="M17.4835612,43.0363238 C11.5660482,43.0363238 6.72444661,47.8779254 6.72444661,53.7954384 C6.72444661,59.7129514 11.5660482,64.554553 17.4835612,64.554553 C23.4010742,64.554553 28.2426758,59.7129514 28.2426758,53.7954384 C28.2426758,47.8779254 23.4010742,43.0363238 17.4835612,43.0363238 M17.4835612,45.7261025 C21.921696,45.7261025 25.5528971,49.3573037 25.5528971,53.7954384 C25.5528971,58.2335732 21.921696,61.8647744 17.4835612,61.8647744 C13.0454264,61.8647744 9.41422526,58.2335732 9.41422526,53.7954384 C9.41422526,49.3573037 13.0454264,45.7261025 17.4835612,45.7261025" id="bus_Fill-4" fill="#04203E"></path>
                <path d="M17.4835612,43.0363238 C11.5660482,43.0363238 6.72444661,47.8779254 6.72444661,53.7954384 C6.72444661,59.7129514 11.5660482,64.554553 17.4835612,64.554553 C23.4010742,64.554553 28.2426758,59.7129514 28.2426758,53.7954384 C28.2426758,47.8779254 23.4010742,43.0363238 17.4835612,43.0363238 Z M17.4835612,45.7261025 C21.921696,45.7261025 25.5528971,49.3573037 25.5528971,53.7954384 C25.5528971,58.2335732 21.921696,61.8647744 17.4835612,61.8647744 C13.0454264,61.8647744 9.41422526,58.2335732 9.41422526,53.7954384 C9.41422526,49.3573037 13.0454264,45.7261025 17.4835612,45.7261025 L17.4835612,45.7261025 Z" id="bus_Stroke-5" stroke="#04203E"></path>
                <path d="M88.7626953,43.0363238 C82.8451823,43.0363238 78.0035807,47.8779254 78.0035807,53.7954384 C78.0035807,59.7129514 82.8451823,64.554553 88.7626953,64.554553 C94.6802083,64.554553 99.5218099,59.7129514 99.5218099,53.7954384 C99.5218099,47.8779254 94.6802083,43.0363238 88.7626953,43.0363238 M88.7626953,45.7261025 C93.2008301,45.7261025 96.8320313,49.3573037 96.8320313,53.7954384 C96.8320313,58.2335732 93.2008301,61.8647744 88.7626953,61.8647744 C84.3245605,61.8647744 80.6933594,58.2335732 80.6933594,53.7954384 C80.6933594,49.3573037 84.3245605,45.7261025 88.7626953,45.7261025" id="bus_Fill-6" fill="#04203E"></path>
                <path d="M88.7626953,43.0363238 C82.8451823,43.0363238 78.0035807,47.8779254 78.0035807,53.7954384 C78.0035807,59.7129514 82.8451823,64.554553 88.7626953,64.554553 C94.6802083,64.554553 99.5218099,59.7129514 99.5218099,53.7954384 C99.5218099,47.8779254 94.6802083,43.0363238 88.7626953,43.0363238 Z M88.7626953,45.7261025 C93.2008301,45.7261025 96.8320313,49.3573037 96.8320313,53.7954384 C96.8320313,58.2335732 93.2008301,61.8647744 88.7626953,61.8647744 C84.3245605,61.8647744 80.6933594,58.2335732 80.6933594,53.7954384 C80.6933594,49.3573037 84.3245605,45.7261025 88.7626953,45.7261025 L88.7626953,45.7261025 Z" id="bus_Stroke-7" stroke="#04203E"></path>
            </g>
        </g>
    </g>
</svg>
