<svg width="119px" height="61px" viewBox="0 0 119 61" version="1.1" xmlns="http://www.w3.org/2000/svg" xmlns:xlink="http://www.w3.org/1999/xlink">
    <g id="car_final" stroke="none" stroke-width="1" fill="none" fill-rule="evenodd">
        <g id="car_montauk" transform="translate(-226.000000, -2670.000000)">
            <g id="car_Page-1" transform="translate(227.000000, 2671.000000)">
                <path d="M114.890373,41.9891276 C114.890373,44.3282301 113.137995,46.0825569 110.796944,46.0825569 L99.2963568,46.0825569 C98.7115812,39.8449504 93.4486008,35.1667456 87.2109944,35.1667456 C80.9753373,35.1667456 75.7104076,40.0398756 75.1275812,46.0825569 L41.4035723,46.0825569 C40.8187967,39.8449504 35.5558163,35.1667456 29.3182099,35.1667456 C23.0806035,35.1667456 17.8176231,40.0398756 17.2328475,46.0825569 L6.1221111,46.0825569 C4.1728591,46.0825569 2.6134575,44.5231553 2.6134575,42.5739033 L2.6134575,33.9971944 C2.6134575,32.632718 3.3931583,31.2682416 4.7576347,30.683466 L16.0632963,25.6154108 C16.8429971,25.2255604 17.6226979,24.83571 18.4023987,24.6407848 C23.2755287,22.4966076 27.1740327,20.937206 28.9283595,15.08945 C31.2674619,7.4873672 38.0898439,2.419312 45.886852,2.419312 L76.8799588,2.419312 C83.1175652,2.419312 88.7723453,6.7076664 90.3297976,12.7503476 C92.4739748,20.7422808 98.3217308,22.886458 105.728888,25.6154108 L111.966495,27.9545132 C113.720822,28.5392888 114.890373,30.0986904 114.890373,31.8530172 L114.890373,41.9891276 Z M87.2109944,57.3862692 C81.7530888,57.3862692 77.2698092,52.9049389 77.2698092,47.4470333 C77.2698092,41.9891276 81.7530888,37.505848 87.2109944,37.505848 C92.6708493,37.505848 97.1521796,41.9891276 97.1521796,47.4470333 C97.1521796,52.9049389 92.6708493,57.3862692 87.2109944,57.3862692 L87.2109944,57.3862692 Z M29.3182099,57.3862692 C23.8603043,57.3862692 19.3770247,52.9049389 19.3770247,47.4470333 C19.3770247,41.9891276 23.8603043,37.505848 29.3182099,37.505848 C34.7761155,37.505848 39.2593951,41.9891276 39.2593951,47.4470333 C39.2593951,52.9049389 34.7761155,57.3862692 29.3182099,57.3862692 L29.3182099,57.3862692 Z M112.746196,25.810336 L106.508589,23.4712336 C99.4932313,20.937206 94.4232268,18.987954 92.4739748,12.165572 C90.5247228,5.1482648 84.0921912,0.0802095941 76.8799588,0.0802095941 L45.886852,0.0802095941 C36.9202927,0.0802095941 29.3182099,5.7330404 26.5892571,14.3097492 C25.0298555,19.1828792 22.1059775,20.3524304 17.4277727,22.3016824 C16.6480719,22.6915328 15.8683711,23.0813832 14.8937451,23.2763084 L3.5880835,28.3443636 C1.4439063,29.3189896 0.0794298933,31.2682416 0.0794298933,33.607344 L0.0794298933,42.1840528 C0.0794298933,45.3028561 2.6134575,48.0318089 5.9271859,48.0318089 L17.0379223,48.0318089 C17.6226979,54.2694153 22.8856783,59.3355212 29.1232847,59.3355212 C35.5558163,59.3355212 40.8187967,54.4643405 41.2086471,48.0318089 L74.7357816,48.0318089 C75.3205572,54.2694153 80.5835376,59.3355212 86.8230933,59.3355212 C93.2536756,59.3355212 98.5186053,54.4643405 98.9065064,48.0318089 L110.407093,48.0318089 C113.915747,48.0318089 116.839625,45.1079309 116.839625,41.5992772 L116.839625,31.8530172 C117.229475,29.1240644 115.475148,26.5900368 112.746196,25.810336 L112.746196,25.810336 Z" id="car_Fill-1" fill="#04203E"></path>
                <path d="M114.890373,41.9891276 C114.890373,44.3282301 113.137995,46.0825569 110.796944,46.0825569 L99.2963568,46.0825569 C98.7115812,39.8449504 93.4486008,35.1667456 87.2109944,35.1667456 C80.9753373,35.1667456 75.7104076,40.0398756 75.1275812,46.0825569 L41.4035723,46.0825569 C40.8187967,39.8449504 35.5558163,35.1667456 29.3182099,35.1667456 C23.0806035,35.1667456 17.8176231,40.0398756 17.2328475,46.0825569 L6.1221111,46.0825569 C4.1728591,46.0825569 2.6134575,44.5231553 2.6134575,42.5739033 L2.6134575,33.9971944 C2.6134575,32.632718 3.3931583,31.2682416 4.7576347,30.683466 L16.0632963,25.6154108 C16.8429971,25.2255604 17.6226979,24.83571 18.4023987,24.6407848 C23.2755287,22.4966076 27.1740327,20.937206 28.9283595,15.08945 C31.2674619,7.4873672 38.0898439,2.419312 45.886852,2.419312 L76.8799588,2.419312 C83.1175652,2.419312 88.7723453,6.7076664 90.3297976,12.7503476 C92.4739748,20.7422808 98.3217308,22.886458 105.728888,25.6154108 L111.966495,27.9545132 C113.720822,28.5392888 114.890373,30.0986904 114.890373,31.8530172 L114.890373,41.9891276 Z M87.2109944,57.3862692 C81.7530888,57.3862692 77.2698092,52.9049389 77.2698092,47.4470333 C77.2698092,41.9891276 81.7530888,37.505848 87.2109944,37.505848 C92.6708493,37.505848 97.1521796,41.9891276 97.1521796,47.4470333 C97.1521796,52.9049389 92.6708493,57.3862692 87.2109944,57.3862692 Z M29.3182099,57.3862692 C23.8603043,57.3862692 19.3770247,52.9049389 19.3770247,47.4470333 C19.3770247,41.9891276 23.8603043,37.505848 29.3182099,37.505848 C34.7761155,37.505848 39.2593951,41.9891276 39.2593951,47.4470333 C39.2593951,52.9049389 34.7761155,57.3862692 29.3182099,57.3862692 Z M112.746196,25.810336 L106.508589,23.4712336 C99.4932313,20.937206 94.4232268,18.987954 92.4739748,12.165572 C90.5247228,5.1482648 84.0921912,0.0802095941 76.8799588,0.0802095941 L45.886852,0.0802095941 C36.9202927,0.0802095941 29.3182099,5.7330404 26.5892571,14.3097492 C25.0298555,19.1828792 22.1059775,20.3524304 17.4277727,22.3016824 C16.6480719,22.6915328 15.8683711,23.0813832 14.8937451,23.2763084 L3.5880835,28.3443636 C1.4439063,29.3189896 0.0794298933,31.2682416 0.0794298933,33.607344 L0.0794298933,42.1840528 C0.0794298933,45.3028561 2.6134575,48.0318089 5.9271859,48.0318089 L17.0379223,48.0318089 C17.6226979,54.2694153 22.8856783,59.3355212 29.1232847,59.3355212 C35.5558163,59.3355212 40.8187967,54.4643405 41.2086471,48.0318089 L74.7357816,48.0318089 C75.3205572,54.2694153 80.5835376,59.3355212 86.8230933,59.3355212 C93.2536756,59.3355212 98.5186053,54.4643405 98.9065064,48.0318089 L110.407093,48.0318089 C113.915747,48.0318089 116.839625,45.1079309 116.839625,41.5992772 L116.839625,31.8530172 C117.229475,29.1240644 115.475148,26.5900368 112.746196,25.810336 Z" id="car_Stroke-3" stroke="#04203E"></path>
            </g>
        </g>
    </g>
</svg>
