<?xml version="1.0" encoding="UTF-8"?>
<svg width="119px" height="62px" viewBox="0 0 119 62" version="1.1" xmlns="http://www.w3.org/2000/svg" xmlns:xlink="http://www.w3.org/1999/xlink">
    <!-- Generator: Sketch 45.2 (43514) - http://www.bohemiancoding.com/sketch -->
    <title>Page 1</title>
    <desc>Created with Sketch.</desc>
    <defs></defs>
    <g id="final" stroke="none" stroke-width="1" fill="none" fill-rule="evenodd">
        <g id="montauk" transform="translate(-227.000000, -2365.000000)" stroke="#04203E" stroke-width="2">
            <g id="Page-1" transform="translate(228.000000, 2366.000000)">
                <path d="M41.8457,47.3084 C41.8457,54.3184 36.1637,59.9994 29.1547,59.9994 C22.1447,59.9994 16.4627,54.3184 16.4627,47.3084 C16.4627,40.2994 22.1447,34.6174 29.1547,34.6174 C36.1637,34.6174 41.8457,40.2994 41.8457,47.3084 Z" id="Stroke-1"></path>
                <path d="M41.458,46.9442 L58.309,46.9442 L74.791,46.9442 C74.985,40.1052 80.577,34.6172 87.463,34.6172 C94.35,34.6172 99.941,40.1052 100.136,46.9442 L101.312,46.9442 C109.73,46.9442 116.618,42.5992 116.618,37.2882 C116.618,31.9772 110.058,25.7262 102.041,23.3972 C94.023,21.0682 80.904,0.0002 72.886,0.0002 L58.308,0.0002 L43.731,0.0002 C35.714,0.0002 22.594,21.0682 14.577,23.3972 C6.56,25.7262 0,31.9772 0,37.2882 C0,42.5992 6.888,46.9442 15.306,46.9442 L16.476,46.9442" id="Stroke-3"></path>
                <path d="M74.7905,46.9442 C74.7875,47.0662 74.7715,47.1852 74.7715,47.3082 C74.7715,54.3182 80.4545,60.0002 87.4635,60.0002 C94.4725,60.0002 100.1545,54.3182 100.1545,47.3082 C100.1545,47.1852 100.1395,47.0662 100.1365,46.9442" id="Stroke-5"></path>
            </g>
        </g>
    </g>
</svg>