<svg id="Layer_1" data-name="Layer 1" xmlns="http://www.w3.org/2000/svg" viewBox="0 0 765 227"><defs><style>.cls-1{fill:#fcf7f7;}</style></defs><title>engaged-svg-text</title><path class="cls-1" d="M765,227H0V0H765ZM142.76,46.88h-17.2v.7a7.64,7.64,0,0,1,2,.4,9.61,9.61,0,0,1,3.55,1.75,4.25,4.25,0,0,1,1.6,3.55,10.08,10.08,0,0,1-.5,2.6l-14,39.7-17.7-48.7h-1.7l-17.3,48.5L67,55.58l.1.3a8.25,8.25,0,0,1-.5-2.8,4.47,4.47,0,0,1,1.35-3.45,7.11,7.11,0,0,1,3-1.7,5.77,5.77,0,0,1,1.7-.35v-.7H46.16v.7a4.88,4.88,0,0,1,1.5.5,11.6,11.6,0,0,1,3.25,2.15,13,13,0,0,1,3,4.45l21.7,60.2h1l5.8-16.6,11.8-33.6,18.1,50.2h1l20.9-59.3a12,12,0,0,1,3-4.65,15.12,15.12,0,0,1,3.7-2.6,7.71,7.71,0,0,1,1.8-.75Zm36.3,45.8a29.14,29.14,0,0,0-2.8-12.1,20.16,20.16,0,0,0-7.15-8.25,18.44,18.44,0,0,0-10.25-3,24.61,24.61,0,0,0-12.5,3,19.33,19.33,0,0,0-7.8,8.15A24.81,24.81,0,0,0,136,91.88q0,10.8,6.2,17.3t18.5,6.5A16.84,16.84,0,0,0,173,111q4.8-4.7,6.2-13.7h-.5q-2,7.1-6,10a14.94,14.94,0,0,1-9.1,3q-8.6,0-12.55-5.15a19.84,19.84,0,0,1-4-12.45Zm-32-1.4a35.11,35.11,0,0,1,3.1-14.45q2.9-6,8.6-6t7.85,5.65q2.25,5.65,2.45,14.85Zm93.3,18.8a61,61,0,0,1-9.9,1q-5.2,0-7.45-1.35t-2.25-3q0-5.2,12.6-5.9,10.7-.6,15.85-4.2t5.15-11.2a15.85,15.85,0,0,0-2.6-9.25,14.68,14.68,0,0,0-7.9-5.45q.6-2.4,1.6-5.4a8,8,0,0,1,2.1-3.45,4,4,0,0,1,2.6-1.15,2.55,2.55,0,0,1,1.95.8,3.24,3.24,0,0,1,.75,2.3,9.68,9.68,0,0,1-2,5.4l5,1.5a9.83,9.83,0,0,0,2.5-6.6,6.21,6.21,0,0,0-1.6-4.35,5.8,5.8,0,0,0-4.5-1.75,7.28,7.28,0,0,0-5,1.75A13,13,0,0,0,244,65.28q-.8,2.4-1.4,5a31,31,0,0,0-7.9-.9q-10,0-15,4.6a15.51,15.51,0,0,0-5,11.9,13.56,13.56,0,0,0,3.45,9.55q3.45,3.75,10,4.65a23.15,23.15,0,0,0-7.15,2,13.34,13.34,0,0,0-4.75,3.55,8.51,8.51,0,0,0-2,5.2,6.25,6.25,0,0,0,2,4.6,10.47,10.47,0,0,0,5.85,2.6q-5.6.8-8.1,3.1a7,7,0,0,0-2.5,5.3q0,4.4,5.85,7t17.35,2.65q10.8,0,17.1-3.55t6.3-11.45q0-11.6-12-11.6A31.7,31.7,0,0,0,240.35,110.08Zm.3,24.1a39.56,39.56,0,0,1-6.1.4,31,31,0,0,1-11.35-1.9q-4.85-1.9-5.55-5.7a2.57,2.57,0,0,1-.1-.8,7.87,7.87,0,0,1,1.8-4.7,7.67,7.67,0,0,1,3.9-3,8.38,8.38,0,0,0,2,.5,25.54,25.54,0,0,0,4.9.4,44.49,44.49,0,0,0,8.1-.8,32.1,32.1,0,0,1,5.6-.6q4.6,0,6.4,2a8.39,8.39,0,0,1,1.8,5.8,6.5,6.5,0,0,1-2.75,5.65Q246.55,133.38,240.65,134.18Zm-15.2-47.5a36.6,36.6,0,0,1-.5-5.2q0-5.7,2.5-8.2a8.3,8.3,0,0,1,6.1-2.5q7.6,0,9.9,13.3a28.58,28.58,0,0,1,.5,5.4q0,4.8-1.85,6.9a8.53,8.53,0,0,1-4.95,2.7,12,12,0,0,1-1.8.2,8.13,8.13,0,0,1-6-2.85Q226.65,93.58,225.45,86.68Zm35.6,6.5q0,10.1,5.7,16.3t17.3,6.2q11.6,0,17.35-6.2t5.75-16.3a28.25,28.25,0,0,0-2.5-12,19.69,19.69,0,0,0-7.65-8.6q-5.15-3.2-13-3.2-11.5,0-17.25,6.75T261.05,93.18Zm11.1,1.7a52.92,52.92,0,0,1-.9-9.1q0-6.8,2.45-10.45A9.65,9.65,0,0,1,280.35,71a12.05,12.05,0,0,1,1.7-.2q4.7,0,8.35,5.1t5.65,15.6a51.46,51.46,0,0,1,1,9.4q0,6.3-2.3,9.35a9.79,9.79,0,0,1-6.5,3.75,16.09,16.09,0,0,1-2.1.2Q275.65,114.18,272.15,94.88Zm71.4,9.3a11.52,11.52,0,0,1-3.55,5.45,7.49,7.49,0,0,1-4.65,1.75,5.55,5.55,0,0,1-4.65-2.3q-1.75-2.3-1.75-6.8V71.78h13v-1.4H329V51.78h-.9l-8.5,7.7v10.9h-8.2v1.4h8.2l-.1,31.1q0,5.9,3.25,9.45t8.95,3.55q5.3,0,8.2-2.7t4.2-9Zm76-11.5a29.12,29.12,0,0,0-2.8-12.1,20.15,20.15,0,0,0-7.15-8.25,18.44,18.44,0,0,0-10.25-3,24.61,24.61,0,0,0-12.5,3,19.33,19.33,0,0,0-7.8,8.15,24.81,24.81,0,0,0-2.6,11.35q0,10.8,6.2,17.3t18.5,6.5a16.84,16.84,0,0,0,12.3-4.7q4.8-4.7,6.2-13.7h-.5q-2,7.1-6,10a14.94,14.94,0,0,1-9.1,3q-8.6,0-12.55-5.15a19.84,19.84,0,0,1-4-12.45Zm-32-1.4a35.11,35.11,0,0,1,3.1-14.45q2.9-6,8.6-6t7.85,5.65q2.25,5.65,2.45,14.85Zm82.5,14.6V81.68a11.69,11.69,0,0,0-3.55-9,12.63,12.63,0,0,0-9-3.3,18,18,0,0,0-9.4,2.45,31.33,31.33,0,0,0-8.2,7.65l-3.7-9.1h-.7a21.49,21.49,0,0,1-4.8,2.8,29,29,0,0,1-4.5,1.55q-1.9.45-2.4.55V76q0-.2,1.85.5A7.68,7.68,0,0,1,429,79a8.35,8.35,0,0,1,1.45,5.25v21.6a8.35,8.35,0,0,1-1.45,5.25,7.65,7.65,0,0,1-3.3,2.55q-1.85.7-1.85.5v.7h22.7v-.7q0,.2-1.85-.5a7.63,7.63,0,0,1-3.3-2.55,8.34,8.34,0,0,1-1.45-5.25V81.58q6.4-8.1,12.9-8.1,7.7,0,7.7,9.1v23.3a8.34,8.34,0,0,1-1.45,5.25,7.65,7.65,0,0,1-3.3,2.55q-1.85.7-1.85.5v.7h22.7v-.7q0,.2-1.85-.5a7.63,7.63,0,0,1-3.3-2.55A8.33,8.33,0,0,1,470,105.88Zm38.6,4.2a61,61,0,0,1-9.9,1q-5.2,0-7.45-1.35t-2.25-3q0-5.2,12.6-5.9,10.7-.6,15.85-4.2t5.15-11.2a15.85,15.85,0,0,0-2.6-9.25,14.68,14.68,0,0,0-7.9-5.45q.6-2.4,1.6-5.4a8,8,0,0,1,2.1-3.45,4,4,0,0,1,2.6-1.15,2.55,2.55,0,0,1,2,.8,3.24,3.24,0,0,1,.75,2.3,9.68,9.68,0,0,1-2,5.4l5,1.5a9.83,9.83,0,0,0,2.5-6.6,6.21,6.21,0,0,0-1.6-4.35,5.8,5.8,0,0,0-4.5-1.75,7.28,7.28,0,0,0-5,1.75,13,13,0,0,0-3.25,5.55q-.8,2.4-1.4,5a31,31,0,0,0-7.9-.9q-10,0-14.95,4.6a15.51,15.51,0,0,0-5,11.9,13.55,13.55,0,0,0,3.45,9.55q3.45,3.75,9.95,4.65a23.13,23.13,0,0,0-7.15,2,13.34,13.34,0,0,0-4.75,3.55,8.51,8.51,0,0,0-2,5.2,6.25,6.25,0,0,0,2,4.6,10.47,10.47,0,0,0,5.85,2.6q-5.6.8-8.1,3.1a7,7,0,0,0-2.5,5.3q0,4.4,5.85,7T503,136.08q10.8,0,17.1-3.55t6.3-11.45q0-11.6-12-11.6A31.69,31.69,0,0,0,508.65,110.08Zm.3,24.1a39.54,39.54,0,0,1-6.1.4,31,31,0,0,1-11.35-1.9q-4.85-1.9-5.55-5.7a2.61,2.61,0,0,1-.1-.8,7.86,7.86,0,0,1,1.8-4.7,7.67,7.67,0,0,1,3.9-3,8.36,8.36,0,0,0,2,.5,25.54,25.54,0,0,0,4.9.4,44.49,44.49,0,0,0,8.1-.8,32.1,32.1,0,0,1,5.6-.6q4.6,0,6.4,2a8.39,8.39,0,0,1,1.8,5.8,6.5,6.5,0,0,1-2.75,5.65Q514.85,133.38,508.95,134.18Zm-15.2-47.5a36.6,36.6,0,0,1-.5-5.2q0-5.7,2.5-8.2a8.3,8.3,0,0,1,6.1-2.5q7.6,0,9.9,13.3a28.66,28.66,0,0,1,.5,5.4q0,4.8-1.85,6.9a8.53,8.53,0,0,1-5,2.7,12,12,0,0,1-1.8.2,8.12,8.12,0,0,1-6-2.85Q494.95,93.58,493.75,86.68Zm72.4,16.5v-21q0-12.8-10.5-12.8a37.85,37.85,0,0,0-11.85,1.85,21.55,21.55,0,0,0-9.15,5.55,12.49,12.49,0,0,0-3.5,8.9,19.25,19.25,0,0,0,.9,5.5l9.3-3.8a12.57,12.57,0,0,1-2-3.65,13.88,13.88,0,0,1-.55-4.15,5.93,5.93,0,0,1,2.1-4.45,14.43,14.43,0,0,1,5.05-3,15.88,15.88,0,0,1,5.25-1q2.9,0,4.15,1.35a6.11,6.11,0,0,1,1.25,4.25v10l-12.8,4.5a43.12,43.12,0,0,0-9.45,4.4,12.64,12.64,0,0,0-4.4,4.5,11.69,11.69,0,0,0-1.15,5.3,9.38,9.38,0,0,0,3.45,7.7,12,12,0,0,0,7.75,2.8,22.71,22.71,0,0,0,9.7-2,15.31,15.31,0,0,0,6.9-6.35l2.7,8.4,13.4-3.7v-.7q0,.2-1.85-.3a6.29,6.29,0,0,1-3.3-2.35Q566.15,107,566.15,103.18Zm-19.4,8.6q-7.1,0-7.1-9.2,0-4.3,4.35-7.75A53.23,53.23,0,0,1,556.65,88v11.7Q556.65,111.78,546.75,111.78Zm58-1.7a61,61,0,0,1-9.9,1q-5.2,0-7.45-1.35t-2.25-3q0-5.2,12.6-5.9,10.7-.6,15.85-4.2t5.15-11.2a15.85,15.85,0,0,0-2.6-9.25,14.68,14.68,0,0,0-7.9-5.45q.6-2.4,1.6-5.4a8,8,0,0,1,2.1-3.45,4,4,0,0,1,2.6-1.15,2.55,2.55,0,0,1,2,.8,3.24,3.24,0,0,1,.75,2.3,9.68,9.68,0,0,1-2,5.4l5,1.5a9.83,9.83,0,0,0,2.5-6.6,6.21,6.21,0,0,0-1.6-4.35,5.8,5.8,0,0,0-4.5-1.75,7.28,7.28,0,0,0-5,1.75,13,13,0,0,0-3.25,5.55q-.8,2.4-1.4,5a31,31,0,0,0-7.9-.9q-10,0-14.95,4.6a15.51,15.51,0,0,0-5,11.9,13.55,13.55,0,0,0,3.45,9.55q3.45,3.75,9.95,4.65a23.13,23.13,0,0,0-7.15,2,13.34,13.34,0,0,0-4.75,3.55,8.51,8.51,0,0,0-2,5.2,6.25,6.25,0,0,0,2,4.6,10.47,10.47,0,0,0,5.85,2.6q-5.6.8-8.1,3.1a7,7,0,0,0-2.5,5.3q0,4.4,5.85,7t17.35,2.65q10.8,0,17.1-3.55t6.3-11.45q0-11.6-12-11.6A31.69,31.69,0,0,0,604.74,110.08Zm.3,24.1a39.54,39.54,0,0,1-6.1.4,31,31,0,0,1-11.35-1.9q-4.85-1.9-5.55-5.7a2.61,2.61,0,0,1-.1-.8,7.86,7.86,0,0,1,1.8-4.7,7.67,7.67,0,0,1,3.9-3,8.36,8.36,0,0,0,2,.5,25.54,25.54,0,0,0,4.9.4,44.49,44.49,0,0,0,8.1-.8,32.1,32.1,0,0,1,5.6-.6q4.6,0,6.4,2a8.39,8.39,0,0,1,1.8,5.8,6.5,6.5,0,0,1-2.75,5.65Q610.94,133.38,605,134.18Zm-15.2-47.5a36.6,36.6,0,0,1-.5-5.2q0-5.7,2.5-8.2a8.3,8.3,0,0,1,6.1-2.5q7.6,0,9.9,13.3a28.66,28.66,0,0,1,.5,5.4q0,4.8-1.85,6.9a8.53,8.53,0,0,1-5,2.7,12,12,0,0,1-1.8.2,8.12,8.12,0,0,1-6-2.85Q591,93.58,589.85,86.68Zm78.7,6a29.12,29.12,0,0,0-2.8-12.1,20.16,20.16,0,0,0-7.15-8.25,18.44,18.44,0,0,0-10.25-3,24.61,24.61,0,0,0-12.5,3,19.32,19.32,0,0,0-7.8,8.15,24.81,24.81,0,0,0-2.6,11.35q0,10.8,6.2,17.3t18.5,6.5a16.84,16.84,0,0,0,12.3-4.7q4.8-4.7,6.2-13.7h-.5q-2,7.1-6,10a14.94,14.94,0,0,1-9.1,3q-8.6,0-12.55-5.15a19.85,19.85,0,0,1-4-12.45Zm-32-1.4a35.11,35.11,0,0,1,3.1-14.45q2.9-6,8.6-6t7.85,5.65q2.25,5.65,2.45,14.85Zm82.7,11.2V41.88h-.9a40.58,40.58,0,0,1-6.6,3.7,52.71,52.71,0,0,1-5.7,2.2q-2.3.7-2.9.8v.7q0-.2,1.85.5a7.67,7.67,0,0,1,3.3,2.55,8.35,8.35,0,0,1,1.45,5.25v16.1a12.33,12.33,0,0,0-4.7-3.1,16.56,16.56,0,0,0-6.2-1.2,25.87,25.87,0,0,0-13.2,3.3,22.77,22.77,0,0,0-8.75,8.85,25,25,0,0,0-3,12.25,25.78,25.78,0,0,0,2.4,11.3,19.29,19.29,0,0,0,6.5,7.8,15.77,15.77,0,0,0,9.1,2.8,26.08,26.08,0,0,0,10.25-1.85,21.33,21.33,0,0,0,8-6.15l2.8,8.2,13-4.4v-.7q0,.2-1.85-.3a6.29,6.29,0,0,1-3.3-2.35Q719.24,106.28,719.24,102.48Zm-20.8,8.3a11.5,11.5,0,0,1-7-2.35,15.78,15.78,0,0,1-5-6.8A27.65,27.65,0,0,1,684.54,91a28,28,0,0,1,2-11,15.69,15.69,0,0,1,5.2-6.85,12.26,12.26,0,0,1,7.25-2.3,12,12,0,0,1,7.65,2.4,8.11,8.11,0,0,1,3.15,6.5L710,106a11.41,11.41,0,0,1-5.1,3.55A18.25,18.25,0,0,1,698.44,110.78Zm-355.68,59.8h.08v9.3h3v-12.6h-4.62l-2.12,8.42h-.06l-2.22-8.42h-4.72v12.6h2.8v-9.3H335l2.58,9.3h2.6Zm7.08,9.3h3l1.06-2.72H359l1.08,2.72h3.24l-5.08-12.6h-3.38Zm6.68-9.14,1.62,4.14h-3.32l1.62-4.14ZM368,167.28h-3.36l4.84,7.78v4.82h2.94v-4.82l4.86-7.78H374l-2.94,4.86Zm25.34,8.7a13.3,13.3,0,0,0,2.51-2.37,4.14,4.14,0,0,0,.77-2.55,3.73,3.73,0,0,0-1.24-2.9,5.72,5.72,0,0,0-6.92.09,4.15,4.15,0,0,0-1.32,3.21,6.75,6.75,0,0,0,.16,1.18l3,.08a3.8,3.8,0,0,1-.14-1.06,2.4,2.4,0,0,1,.43-1.5,1.53,1.53,0,0,1,1.29-.56,1.43,1.43,0,0,1,1.6,1.64,2.58,2.58,0,0,1-.59,1.67,16.4,16.4,0,0,1-2.17,2l-3.48,2.82v2.12h9.64v-2.52h-5.24ZM406,167a5.16,5.16,0,0,0-4.1,1.72,8.49,8.49,0,0,0,0,9.64,5.75,5.75,0,0,0,8.2,0,8.49,8.49,0,0,0,0-9.64A5.16,5.16,0,0,0,406,167Zm0,10.64a2,2,0,0,1-1.83-1,8.72,8.72,0,0,1,0-6.2,2.17,2.17,0,0,1,3.66,0,8.71,8.71,0,0,1,0,6.2A2,2,0,0,1,406,177.68Zm11.58-6.5v8.7h3V167.26H418.3a2.8,2.8,0,0,1-1.06,1.46,3.64,3.64,0,0,1-2,.46v2Zm10.83,3.21a16.64,16.64,0,0,0-.89,5.49h3.32q0-1.72.11-2.87a15.89,15.89,0,0,1,.46-2.49,9.11,9.11,0,0,1,1.1-2.54,13.61,13.61,0,0,1,1.93-2.38v-2.32H425V170h6.16A13.25,13.25,0,0,0,428.44,174.39Z"/></svg>