<?xml version="1.0" encoding="utf-8"?>
<!-- Generator: Adobe Illustrator 21.0.2, SVG Export Plug-In . SVG Version: 6.00 Build 0)  -->
<!DOCTYPE svg PUBLIC "-//W3C//DTD SVG 1.1//EN" "http://www.w3.org/Graphics/SVG/1.1/DTD/svg11.dtd">
<svg version="1.1" id="Layer_1" xmlns="http://www.w3.org/2000/svg" xmlns:xlink="http://www.w3.org/1999/xlink" x="0px" y="0px"
	 viewBox="0 0 1700 1700" style="enable-background:new 0 0 1700 1700;" xml:space="preserve">
<style type="text/css">
	.st0{fill:#FCF7F7;}
</style>
<title>Artboard 3</title>
<path class="st0" d="M852.5,540.6c-5.5-1.4-11.2-0.7-16.1,2.2c-7.2,4.2-11.4,13.5-7.6,21.3c3.3,6.9,11.7,10.6,19.1,10.3
	c8.2-0.2,15.1-5.9,17-13.9C867,551.1,862.5,541.7,852.5,540.6z"/>
<path class="st0" d="M852.2,1125.7c-8.2,0.2-15.1,5.9-17,13.9c-2.2,9.3,2.3,18.8,12.4,19.9c5.5,1.4,11.2,0.7,16.1-2.2
	c7.2-4.2,11.4-13.5,7.6-21.3C868,1129,859.6,1125.3,852.2,1125.7z"/>
<path class="st0" d="M250.5,0H0v350v1000v350h250.5h1199h46.6H1700V350V175V0H250.5z M1218.3,1029.4c3.8,17.7,13.2,33.3,23.5,47.9
	c18.5,26.4,43.2,53.3,42,87.7c0,1.5-1.3,2.7-2.8,2.7c-0.7,0-1.3-0.3-1.8-0.8l-44.1-46.3c-12.5-13.1-25-26.4-37.6-39.4
	c-5.5-5.7-11.2-11.3-18.1-15.2c-7.8-4.5-16.2-5.4-25.1-4.8c-8.9,0.6-17.4,1.8-26.2,2.2c-8.8,0.4-17.7,0.4-26.5,0
	c-17.9-0.9-35.7-3.4-53.2-7.6c-3.4-0.8-1.9-5.8,1.4-5.2c31.5,5.8,65.4-2.4,90.6-22.4c20.8-16.5,35.9-40.3,40-66.7
	c3.8-24.1-2.8-48.6-16.9-68.4c-13.2-18.4-31.9-32.3-51.6-43c-18.9-10.3-39.1-17.9-59.8-23.6c0.2-2.2,0.4-4.4,0.6-6.7
	c0.7-8.2,1.1-16.9-3.8-24.1c-4.4-6.5-11.3-10.8-17.9-14.9c-7.4-4.7-15-9-22.8-13c-33.3-16.9-69.7-26.9-106.9-29.3
	c-2.8-0.2-3.3,3.3-1.6,4.8c0.4,0.4,1,0.6,1.6,0.6c33.8,2.3,66.8,10.9,97.5,25.3c7.5,3.6,14.9,7.5,22.1,11.7
	c6.9,4.1,14.4,8.2,20.2,13.8c6.8,6.7,7.2,14.8,6.4,23.8c-0.1,1.2-0.2,2.3-0.3,3.5c-0.7,8.2-1.5,16.5-2.3,24.8l-5.2,57
	c-16.5-20.4-35.5-38.6-56.5-54.3c-11.6-8.7-23.9-16.1-36.2-23.8c-12.2-7.7-23.7-16.4-34.4-26.1c-10.9-9.9-20.7-21.2-25.5-35.3
	c-0.1-0.3-0.2-0.5-0.3-0.8c-0.2-0.6-0.5-1.1-1-1.4c-1.2-0.8-49.4-31.6-73.3-46.1c-41.2-25-84.6-47.1-122.1-77.9
	c-32.2-26.5-60.2-59.8-73-100.1c36.7,32.7,78.2,59.4,123.2,79.1c3.2,1.4,5.9-3.3,2.7-4.6c-44.7-19.6-86-46.1-122.4-78.5
	c-1.2-1-2.9-0.9-3.9,0.3c-0.1,0.1-0.2,0.3-0.3,0.5c0.1-0.8,0.6-1.5,1.3-1.9l31.7-15l66-31.3c21-10,41.9-20.2,63.2-29.5
	c20.4-8.9,41.2-16.9,62.9-22.2c21.9-5.2,44.3-7.4,66.8-6.7c13.5,0.4,27.2,1.3,40.7,2.9c0.2,0,0.5,0,0.7,0.1
	c9.6,1.1,19.1,2.5,28.6,4.3c1.5,0.3,3,0.6,4.5,0.8c20.5,4,40.7,9.7,59.7,18.3c35.5,16.1,64.6,42.8,90.8,71.2
	c13.2,14.3,25.8,29.2,38.8,43.8s26.6,28,39.3,42.6c16.6,19.1,30.8,40.4,41,63.5c4.9,11,8.8,22.5,11.7,34.2
	c10.1,41.3,5.7,83.7-4.6,124.5c-10.8,43-27.5,84.4-37.7,127.6C1216.7,984,1213.5,1007.2,1218.3,1029.4z M651.7,644.1
	c3.4,0.8,1.9,5.8-1.4,5.2c-31.5-5.8-65.4,2.4-90.6,22.4c-20.8,16.5-35.9,40.3-40,66.7c-3.8,24.1,2.8,48.6,16.9,68.4
	c13.2,18.4,31.9,32.3,51.6,43c18.9,10.3,39.1,17.9,59.8,23.6c-0.2,2.2-0.4,4.4-0.6,6.7c-0.7,8.2-1.1,16.9,3.8,24.1
	c4.4,6.5,11.3,10.8,17.9,14.9c7.4,4.7,15,9,22.8,13c33.3,16.9,69.7,26.9,106.9,29.3c2.8,0.2,3.3-3.3,1.6-4.8c-0.4-0.4-1-0.6-1.6-0.6
	c-33.8-2.3-66.8-10.9-97.5-25.3c-7.5-3.6-14.9-7.5-22.1-11.7c-6.9-4.1-14.4-8.2-20.2-13.8c-6.8-6.7-7.2-14.8-6.4-23.8
	c0.1-1.2,0.2-2.3,0.3-3.5c0.7-8.2,1.5-16.5,2.3-24.8l5.2-57c16.5,20.4,35.5,38.6,56.5,54.3c11.6,8.7,23.9,16.1,36.2,23.8
	c12.2,7.7,23.7,16.4,34.4,26.1c10.9,9.9,20.7,21.2,25.5,35.3c0.1,0.3,0.2,0.5,0.3,0.8c0.2,0.6,0.5,1.1,1,1.4
	c1.2,0.8,49.4,31.6,73.3,46.1c41.2,25,84.7,47.1,122.1,77.9c32.2,26.5,60.2,59.8,73,100.1c-36.7-32.7-78.2-59.4-123.2-79.1
	c-3.2-1.4-5.9,3.3-2.7,4.7c44.7,19.6,86,46.1,122.4,78.5c1.2,1,2.9,0.9,3.9-0.3c0.1-0.1,0.2-0.3,0.3-0.5c-0.1,0.7-0.5,1.4-1.2,1.8
	l-31.7,15l-66.1,31.4c-21,10-41.9,20.2-63.2,29.5c-20.4,8.9-41.2,16.9-62.8,22.1c-21.9,5.2-44.3,7.4-66.8,6.7
	c-13.5-0.4-27.2-1.3-40.7-2.9c-0.2,0-0.5,0-0.7-0.1c-9.6-1.1-19.1-2.5-28.6-4.3c-1.5-0.3-3-0.6-4.5-0.8c-20.5-4-40.7-9.7-59.7-18.3
	c-35.5-16.1-64.6-42.8-90.8-71.2c-13.2-14.3-25.8-29.2-38.8-43.8c-12.9-14.6-26.6-28-39.3-42.6c-16.6-19.1-30.8-40.4-41-63.5
	c-4.9-11-8.8-22.5-11.7-34.2c-10.1-41.3-5.7-83.7,4.6-124.5c10.8-43,27.5-84.4,37.7-127.6c5.1-21.8,8.4-45,3.6-67.2
	c-3.8-17.7-13.2-33.3-23.5-47.9c-18.6-26.4-43.2-53.3-42-87.7c0-1.5,1.3-2.7,2.8-2.7c0.7,0,1.3,0.3,1.8,0.8l44.1,46.3
	c12.5,13.1,25,26.4,37.6,39.4c5.5,5.7,11.2,11.3,18.1,15.2c7.8,4.5,16.2,5.4,25.1,4.8s17.4-1.8,26.2-2.2c8.8-0.4,17.7-0.4,26.5,0
	C616.4,637.4,634.2,639.9,651.7,644.1z M444,1027.6c10.2,23.1,24.4,44.4,41,63.5c12.7,14.6,26.5,28.1,39.3,42.6s25.5,29.5,38.8,43.8
	c26.2,28.4,55.3,55.1,90.8,71.2c19,8.6,39.2,14.3,59.7,18.3c-56.8,6.2-124.9-1-176.3-23.5c-9-3.9-17.9-8.3-25.2-15
	c-9.2-8.4-15-19.8-22-30.1c-21.7-32.1-55.1-54.1-87.6-75.3C425.9,1093.2,437.4,1064.6,444,1027.6z M1256,672.3
	c-10.2-23.1-24.4-44.4-41-63.5c-12.7-14.6-26.5-28.1-39.3-42.6c-12.8-14.5-25.5-29.5-38.8-43.8c-26.2-28.4-55.3-55.1-90.8-71.2
	c-19-8.6-39.2-14.4-59.7-18.3c56.8-6.2,124.9,1,176.3,23.5c9,3.9,17.9,8.3,25.2,15c9.2,8.4,15,19.8,22,30.1
	c21.7,32.1,55.1,54.1,87.6,75.3C1274.1,606.8,1262.5,635.4,1256,672.3z"/>
</svg>
