<svg width="83px" height="85px" viewBox="0 0 83 85" version="1.1" xmlns="http://www.w3.org/2000/svg" xmlns:xlink="http://www.w3.org/1999/xlink">
    <g id="plane_final" stroke="none" stroke-width="1" fill="none" fill-rule="evenodd">
        <g id="plane_montauk" transform="translate(-1130.000000, -2646.000000)" fill="#04203E">
            <path d="M1133.26193,2693.95044 L1164.9027,2673.07406 L1164.9027,2655.67707 C1164.9027,2652.08894 1167.83844,2649.26193 1171.31784,2649.26193 C1174.79724,2649.26193 1177.73298,2652.19876 1177.73298,2655.67707 L1177.73298,2672.96533 L1209.37374,2693.95044 L1209.37374,2700.90923 L1177.73298,2690.47104 L1177.73298,2712.21836 L1189.04102,2720.15573 L1189.04102,2727.11344 L1171.31784,2721.13323 L1153.59466,2727.54836 L1153.59466,2720.15573 L1164.9027,2712.21836 L1164.9027,2690.47104 L1133.26193,2700.90923 L1133.26193,2693.95044 Z M1130,2700.90923 C1130,2701.99654 1130.54366,2702.97621 1131.30477,2703.51987 C1131.84843,2703.9537 1132.50082,2704.17117 1133.26193,2704.17117 C1133.58813,2704.17117 1133.91432,2704.17117 1134.24051,2703.9537 L1161.64077,2694.92902 L1161.64077,2710.47757 L1151.74623,2717.43745 C1150.87638,2718.08875 1150.33273,2719.06842 1150.33273,2720.04592 L1150.33273,2727.54836 C1150.33273,2728.63568 1150.87638,2729.61534 1151.74623,2730.26664 C1152.28989,2730.70266 1152.94227,2730.8103 1153.59466,2730.8103 C1153.92085,2730.8103 1154.35578,2730.70266 1154.68197,2730.59284 L1171.31784,2724.61262 L1187.9537,2730.159 C1188.2799,2730.26664 1188.60609,2730.37537 1189.04102,2730.37537 C1189.6934,2730.37537 1190.34579,2730.159 1190.99818,2729.72299 C1191.86803,2729.07169 1192.30295,2728.09202 1192.30295,2727.11344 L1192.30295,2720.15573 C1192.30295,2719.06842 1191.7593,2718.08875 1190.88945,2717.5451 L1180.99491,2710.58739 L1180.99491,2694.92902 L1208.28643,2703.9537 C1208.61262,2704.06352 1208.93882,2704.17117 1209.26501,2704.17117 C1209.9174,2704.17117 1210.56978,2703.9537 1211.22217,2703.51987 C1212.09202,2702.86639 1212.52695,2701.8889 1212.52695,2700.90923 L1212.52695,2693.95044 C1212.52695,2692.86313 1211.98329,2691.88563 1211.11344,2691.23216 L1180.99491,2671.22671 L1180.99491,2655.67707 C1180.99491,2650.34925 1176.64566,2646 1171.31784,2646 C1165.99001,2646 1161.64077,2650.34925 1161.64077,2655.67707 L1161.64077,2671.22671 L1131.4135,2691.23216 C1130.54366,2691.77582 1130,2692.7544 1130,2693.95044 L1130,2700.90923 Z" id="plane_Fill-1"></path>
        </g>
    </g>
</svg>
