<?xml version="1.0" encoding="UTF-8"?>
<svg width="74px" height="92px" viewBox="0 0 74 92" version="1.1" xmlns="http://www.w3.org/2000/svg" xmlns:xlink="http://www.w3.org/1999/xlink">
    <!-- Generator: Sketch 45.2 (43514) - http://www.bohemiancoding.com/sketch -->
    <title>Page 1</title>
    <desc>Created with Sketch.</desc>
    <defs></defs>
    <g id="final" stroke="none" stroke-width="1" fill="none" fill-rule="evenodd">
        <g id="montauk" transform="translate(-1135.000000, -2324.000000)" stroke-width="2" stroke="#04203E">
            <g id="Page-1" transform="translate(1136.000000, 2325.000000)">
                <polygon id="Stroke-1" points="0.496542008 73.0436607 71.0375461 73.0436607 71.0375461 0.495793737 0.496542008 0.495793737"></polygon>
                <path d="M0.0330629483,50.2459383 L70.574067,50.2459383" id="Stroke-3"></path>
                <path d="M15.1695378,61.6439016 C15.1695378,59.2284828 17.1285113,57.2695093 19.5439301,57.2695093 C21.9608454,57.2695093 23.9198189,59.2284828 23.9198189,61.6439016 C23.9198189,64.0593204 21.9608454,66.0197904 19.5439301,66.0197904 C17.1285113,66.0197904 15.1695378,64.0593204 15.1695378,61.6439016 Z" id="Stroke-4"></path>
                <path d="M46.688209,61.6439016 C46.688209,59.2284828 48.6471825,57.2695093 51.0626013,57.2695093 C53.4795166,57.2695093 55.4384901,59.2284828 55.4384901,61.6439016 C55.4384901,64.0593204 53.4795166,66.0197904 51.0626013,66.0197904 C48.6471825,66.0197904 46.688209,64.0593204 46.688209,61.6439016 Z" id="Stroke-5"></path>
                <path d="M0.496392354,15.3563062 L71.0373965,15.3563062" id="Stroke-6"></path>
                <path d="M35.767493,15.3563062 L35.767493,50.2451901" id="Stroke-7"></path>
                <path d="M19.544379,73.0433614 L9.86324878,90.2880149" id="Stroke-8"></path>
                <path d="M50.5968774,73.0433614 L60.2795042,90.2880149" id="Stroke-9"></path>
                <path d="M0.0330629483,81.6659874 L71.0379951,81.6659874" id="Stroke-10"></path>
            </g>
        </g>
    </g>
</svg>